<svg xmlns="http://www.w3.org/2000/svg" viewBox="0 0 791.1 266.6">
	<path class="LOGO"
		d="M145.2 0v221.7l41.4 44V0h-41.4zM40.9 23.6l12 44.8 37.6-15.5v110.7L0 67.4l40.9-43.8zM97.6 0L41.2 23.3 63.1 0h34.5zm124.8 0v46.9h92.2l-88.2 194.8-22.6 24V0h18.6zm168.1 67.3l-55 58.5 35.8-79 19.2 20.5z"
		fill="#dd1f26" />
	<g class="TEXT">
		<path class="SPORTS"
			d="M773.9 266.6c-9.7 0-17.4-5.6-17.8-5.9l2.4-3.2c.1.1 7 5.1 15.4 5.1 12.6 0 13.2-11 13.2-13.2 0-8.4-6.3-10.6-13.6-13.1-7.6-2.6-16.2-5.6-16.2-16.8 0-5.6 3-9.9 8.5-12.3 7.5-3.2 18.9-2 23.4 2.5l-2.8 2.9c-3-3-12.6-4.3-19.1-1.6-4 1.7-6 4.6-6 8.6 0 8.3 6.3 10.5 13.5 13 7.6 2.6 16.3 5.7 16.3 16.9 0 8.5-5.3 17.1-17.2 17.1zM638.5 266.6c-9.1 0-24.6-6.3-24.6-30.1 0-22.8 14.7-31 24.6-31s24.6 8.3 24.6 31c0 23.8-15.4 30.1-24.6 30.1zm0-57.1c-7.1 0-20.6 5.7-20.6 27 0 20.6 13 26.1 20.6 26.1s20.6-5.5 20.6-26.1c0-21.4-13.5-27-20.6-27zm67.1 56.3L694.8 248v-.1l-6-9.8H673v26.6h-4v-58.3h22.1c4.2 0 8.1 1.7 11.1 4.7s4.7 7 4.7 11.1c0 4.2-1.7 8.1-4.7 11.1-2.4 2.4-5.6 4-8.9 4.5 1.2 2 2.9 4.8 4.8 7.9l1 1.7c3.4 5.6 7.3 11.9 9.8 16.2l-3.3 2.2zm-15.7-31.7h1.2c3 0 6.1-1.3 8.3-3.5 2.3-2.3 3.5-5.2 3.5-8.3 0-3-1.3-6.1-3.5-8.3-2.3-2.3-5.2-3.5-8.3-3.5H673v23.7h16.9zm45.1 30.6h-4v-54.3h-19.9v-4H755v4h-20v54.3zm-155.6 0h-4v-58.3H596c9.6 0 17.3 7.8 17.3 17.3 0 4.6-1.8 8.9-5.1 12.2-3.2 3.2-7.7 5.1-12.2 5.1h-16.6v23.7zm0-27.6H596c3.5 0 6.9-1.4 9.4-3.9s3.9-5.9 3.9-9.4c0-7.4-6-13.3-13.3-13.3h-16.6v26.6zM552.2 266.6c-9.7 0-17.4-5.6-17.8-5.9l2.4-3.2c.1.1 7 5.1 15.4 5.1 12.6 0 13.2-11 13.2-13.2 0-8.4-6.3-10.6-13.6-13.1-7.6-2.6-16.2-5.6-16.2-16.8 0-5.6 3-9.9 8.5-12.3 7.5-3.2 18.9-2 23.4 2.5l-2.8 2.9c-3-3-12.6-4.3-19.1-1.6-4 1.7-6 4.6-6 8.6 0 8.3 6.3 10.5 13.5 13 7.6 2.6 16.3 5.7 16.3 16.9 0 8.5-5.3 17.1-17.2 17.1z" />
		<path class="ELITE"
			d="M482.1 252.1v-10.8h23v-11.6h-23v-9.6H511v-13.6h-42.5V252h-.3v13.6h42.5V252h-28.6v.1zm-55.8-31.9v45.5h13.6v-45.5h17.7v-13.6h-48.9v13.6h17.6zm-44.8-13.5h13.6v59h-13.6v-59zm-31.2 45.4v-45.5h-13.6v59h30.8V252h-17.2zm-70.7-45.4v59h42.5v-13.6h-28.9v-10.8h23v-11.6h-23v-9.6h28.9v-13.6h-42.5v.2z" />

	</g>
</svg>